<svg xmlns="http://www.w3.org/2000/svg" height="800" width="1200" viewBox="-35.20005 -41.33325 305.0671 247.9995">
  <filter id="svgfilter">
		<feGaussianBlur in="SourceAlpha" stdDeviation="4" result="blur" />
		<feOffset in="blur" dx="4" dy="4" result="offsetBlur" />
		<feSpecularLighting surfaceScale="5" specularConstant=".75" specularExponent="20" lighting-color="#E6B325" in="blur" result="highlight">
			<fePointLight x="-5000" y="-10000" z="20000" />
		</feSpecularLighting>
		<feComposite in="highlight" in2="SourceAlpha" operator="in" result="highlight" />
		<feComposite in="SourceGraphic" in2="highlight" operator="arithmetic" k1="0" k2="1" k3="1" k4="0" result="highlightText" />
		<feMerge>
			<feMergeNode in="offsetBlur" />
			<feMergeNode in="highlightText" />
		</feMerge>
	</filter>
	<path filter="url(#svgfilter)" d="M229.763 25.817c-2.699-10.162-10.65-18.165-20.747-20.881C190.716 0 117.333 0 117.333 0S43.951 0 25.651 4.936C15.554 7.652 7.602 15.655 4.904 25.817 0 44.237 0 82.667 0 82.667s0 38.43 4.904 56.85c2.698 10.162 10.65 18.164 20.747 20.881 18.3 4.935 91.682 4.935 91.682 4.935s73.383 0 91.683-4.935c10.097-2.717 18.048-10.72 20.747-20.88 4.904-18.422 4.904-56.851 4.904-56.851s0-38.43-4.904-56.85" fill="#282828" />
	<path filter="url(#svgfilter)" d="M93.333 117.558l61.334-34.89-61.334-34.893z" fill="#fff" />
</svg>
