<svg xmlns="http://www.w3.org/2000/svg"  viewBox="0 0 64 64" width="512px" height="512px"><linearGradient id="d~UVnR2BkCwAfS~b7QqyMa" x1="32" x2="32" y1="7.766" y2="55.021" gradientUnits="userSpaceOnUse"><stop offset="0" stop-color="#1a6dff"/><stop offset="1" stop-color="#c822ff"/></linearGradient><path fill="url(#d~UVnR2BkCwAfS~b7QqyMa)" d="M50,7H14c-3.859,0-7,3.141-7,7v36c0,3.859,3.141,7,7,7h36c3.859,0,7-3.141,7-7V14 C57,10.141,53.859,7,50,7z M55,50c0,2.757-2.243,5-5,5H14c-2.757,0-5-2.243-5-5V14c0-2.757,2.243-5,5-5h36c2.757,0,5,2.243,5,5V50z"/><linearGradient id="d~UVnR2BkCwAfS~b7QqyMb" x1="31.985" x2="31.985" y1="7.766" y2="55.021" gradientUnits="userSpaceOnUse"><stop offset="0" stop-color="#1a6dff"/><stop offset="1" stop-color="#c822ff"/></linearGradient><path fill="url(#d~UVnR2BkCwAfS~b7QqyMb)" d="M49.313,25.031l1.142-6.746c0.099-0.581-0.063-1.174-0.445-1.624 c-0.38-0.45-0.937-0.709-1.527-0.709l-5.964,0.001l0.328-1.617c0.12-0.591-0.03-1.197-0.411-1.664s-0.946-0.734-1.549-0.734H24 c-1.103,0-2,0.897-2,2v2.015h-6.511c-0.581,0-1.132,0.252-1.512,0.691s-0.551,1.021-0.467,1.596l1.178,8.12l-1.256,18.56 c-0.044,0.646,0.23,1.276,0.732,1.686c0.502,0.41,1.176,0.551,1.798,0.377L22,45.303v4.477c0,0.602,0.267,1.165,0.732,1.547 c0.361,0.296,0.808,0.453,1.265,0.453c0.132,0,0.264-0.013,0.396-0.039l10-2.008C35.324,49.546,36,48.721,36,47.771v-3.874 l12.41,0.834c0.577,0.037,1.142-0.173,1.55-0.582c0.409-0.409,0.62-0.976,0.58-1.553l-1.226-17.563 C49.313,25.032,49.313,25.032,49.313,25.031z M36.133,41.901c-0.551-0.036-1.097,0.16-1.5,0.536C34.231,42.814,34,43.347,34,43.897 v3.874l-10,2.008v-4.477c0-0.631-0.288-1.211-0.791-1.593c-0.354-0.269-0.774-0.408-1.204-0.408c-0.18,0-0.362,0.024-0.541,0.074 l-6.039,1.678l1.256-18.558c0.01-0.138,0.004-0.278-0.016-0.424l-1.178-8.12H22c1.103,0,2-0.897,2-2v-2.015h16.887l-0.328,1.617 c-0.12,0.59,0.03,1.196,0.411,1.663c0.382,0.467,0.946,0.734,1.549,0.734h5.964l-1.142,6.746c0,0,0,0,0,0.001 c-0.026,0.154-0.034,0.313-0.023,0.472l1.226,17.564L36.133,41.901z"/><g><linearGradient id="d~UVnR2BkCwAfS~b7QqyMc" x1="32" x2="32" y1="17.085" y2="44.533" gradientUnits="userSpaceOnUse"><stop offset="0" stop-color="#6dc7ff"/><stop offset="1" stop-color="#e6abff"/></linearGradient><path fill="url(#d~UVnR2BkCwAfS~b7QqyMc)" d="M26,17v28.8l6-1.2V34h5v-6h-5v-5h4.8l1.2-6H26z"/></g></svg>