<svg xmlns="http://www.w3.org/2000/svg"  viewBox="0 0 64 64" width="512px" height="512px"><linearGradient id="0EJRLqQQWapo5EVgkkU9ma" x1="29.242" x2="26.509" y1="20.401" y2="41.616" gradientUnits="userSpaceOnUse" spreadMethod="reflect"><stop offset="0" stop-color="#6dc7ff"/><stop offset="1" stop-color="#e6abff"/></linearGradient><path fill="url(#0EJRLqQQWapo5EVgkkU9ma)" d="M42.281,52.481c0.851-5.958-11.278-15.641-23.94-17.662 c-3.648-0.608-6.523-1.387-8.436-2.964c-1.1-0.907,3.46,10.889,3.46,10.889l-0.072-2.079c-0.126-0.21-0.252-0.416-0.378-0.632 c-0.958-1.49,0.638-2.022,2.022-2.022c11.597,0.426,23.833,6.703,26.067,12.236c0.406,1.116,0.597,2.807-0.953,3.977l0.262,0.361 l2.82-2.104l-0.126-0.636C42.764,52.06,42.521,52.281,42.281,52.481z"/><linearGradient id="0EJRLqQQWapo5EVgkkU9mb" x1="27.319" x2="24.085" y1="14.145" y2="39.251" gradientUnits="userSpaceOnUse" spreadMethod="reflect"><stop offset="0" stop-color="#6dc7ff"/><stop offset="1" stop-color="#e6abff"/></linearGradient><path fill="url(#0EJRLqQQWapo5EVgkkU9mb)" d="M26.64,21.094c0.042-0.166,0.029-0.255,0.005-0.317c0,0-0.005-0.002-0.005-0.002h-0.213 l-0.113,0.038c-0.056,0.061-0.1,0.128-0.1,0.175c0,0.213,0,0.319,0.106,0.532C26.321,21.519,26.64,21.519,26.64,21.094z"/><linearGradient id="0EJRLqQQWapo5EVgkkU9mc" x1="37.232" x2="34.005" y1="15.428" y2="40.477" gradientUnits="userSpaceOnUse" spreadMethod="reflect"><stop offset="0" stop-color="#6dc7ff"/><stop offset="1" stop-color="#e6abff"/></linearGradient><path fill="url(#0EJRLqQQWapo5EVgkkU9mc)" d="M55.687,33.649c0-0.106-0.106-0.319-0.106-0.426c-0.638-2.447-3.618-5.32-7.98-6.171 c-1.277-0.213-2.979,0.106-3.937,0.958l-0.851-0.213V27.69c0,0,1.596-1.064,2.234-1.277c0,0,0.319-0.106,0.532-0.213 c0-0.213-0.106-0.426-0.958-0.851S42.6,25.031,42.6,25.031l0.851-0.532v-0.106l-1.809-1.809v-0.319l-0.745-0.745 c0,0,0.106-0.319-0.213-0.532c-0.319-0.319-0.638-0.532-0.745-0.638c-0.106-0.106-0.426-0.213-0.426-0.213 s0.213-0.426,0.213-0.638c0,0,0-0.106-0.106-0.106s-1.17-0.745-1.49-0.851c-0.319-0.106-1.277-0.319-1.383-0.319 s-0.213,0.106-0.213,0.213c0,0.106-0.106,0.638-0.106,0.638l0.851,0.319l-0.106,0.319l-0.532-0.106 c-0.319-0.213-1.915-0.851-3.618-1.064c-1.702-0.213-3.617-0.319-3.83-0.319c-0.213,0-0.426,0.106-1.49,0.426 c-1.064,0.319-1.809,0.638-2.234,0.638c-0.426,0.106-1.915,0.106-1.915,0.106s0-0.106-0.638-0.426 c-0.638-0.319-2.128-1.064-2.66-1.17c-0.106,0-0.106,0.106-0.106,0.106s-0.319,0-0.319,0.532 c-0.106-0.106-0.319-0.106-0.319-0.106l-0.213,0.532c-0.524-0.105-0.942-0.209-1.259-0.314c-0.414,0.475-0.878,0.903-1.383,1.282 l0.514,0.309l-0.106,1.277l-0.106,0.106v0.213l0.106,0.106l-0.106,0.532l-0.106,0.213h0.106v0.106h0.106v0.106H16.32l0.106-1.17 c0,0-0.213,0-0.213-0.319c0-0.141,0.046-0.791,0.078-1.217c-0.164,0.111-0.332,0.216-0.504,0.316v0.157h0.106 c0,0,0,0.426,0.213,1.17c-0.106,0.106-0.426,1.064-0.213,2.128c0.319,1.064,1.49,2.234,2.873,2.66s2.66-0.638,2.66-0.638 l0.426,0.532l1.064,0.213c0,0-0.638,1.596,0,3.086s2.766,2.554,3.724,2.554s2.234-0.745,2.873-1.277 c0.638-0.532,1.17-1.596,1.277-2.022c0.958,0.745,2.022,1.064,2.873,0.638l0.426,0.106l2.66,1.49l2.128,0.745 c0,0,0,1.17,0.532,1.809s1.915,1.277,2.341,1.277s1.49,0,2.447-1.277v-0.106c1.596,1.915,3.83,2.66,6.065,2.66 c1.746,0,2.916,1.004,2.517,2.598l0.675,0.14C53.453,39.046,55.452,34.926,55.687,33.649z M43.771,29.818v0.106l-0.851,1.064 l-0.106,0.106L42.6,30.776C42.6,30.776,43.345,29.818,43.771,29.818z M37.812,21.307c0,0,1.383,0.319,2.234,2.128l-2.128-0.745 l-0.638-1.17L37.812,21.307z M32.386,19.711c0.213,0,1.277,0.106,2.447,0.213c1.277,0.213,1.49,0.213,1.596,0.426 c0,0,0.319,1.064,0.532,1.49c0.213,0.532,0.319,0.958,0.213,0.958h-2.766c-1.064,0.106-2.766,0.213-2.766,0.213 s-0.319-0.213-0.426-0.213l-0.851-1.064c0,0-0.319-0.426-0.213-0.532c0.106-0.213,0.213-0.319,0.745-0.638 c0.532-0.319,1.17-0.745,1.17-0.745S32.173,19.711,32.386,19.711z M32.705,25.669l-0.638,0.106l-0.319-0.106 c0,0-0.958-1.17-1.596-1.596C30.152,24.073,31.535,24.179,32.705,25.669z M27.811,21.945v-0.851c0,0,1.702,0.426,2.766,1.17 C28.981,21.945,27.811,21.945,27.811,21.945z M28.449,18.434c0,0,1.49,0.426,3.086,1.064c0,0-1.809,1.064-1.915,1.064 c-0.106,0-0.426,0.213-0.958,0c-0.638-0.213-2.128-0.745-2.234-0.745s-0.851-0.426-0.851-0.426 C25.576,19.392,28.343,18.434,28.449,18.434z M27.279,21.413c0.106-0.319-0.106-0.426-0.106-0.426c0-0.106-0.106-0.106-0.106,0 H26.96c0,0,0-0.106-0.106-0.213l0.426,0.106l0.319,0.213v0.426c0,0.213-0.213,0.213-0.213,0.213l-0.319-0.106 C27.172,21.626,27.385,21.519,27.279,21.413z M26.96,21.2c0,0.213-0.106,0.426-0.319,0.426c-0.213-0.106-0.319-0.106-0.319-0.106 l-0.213,0.106h-0.106l0.106-0.745l0.206-0.069c0.07-0.077,0.16-0.144,0.219-0.144c0,0,0.074,0.012,0.111,0.109 C26.66,20.782,26.96,20.889,26.96,21.2z M20.044,18.221c0,0,2.341,0.745,2.873,1.17c-0.319,0-0.958,0.106-0.958,0.106 s-0.319-0.319-2.022-0.532C19.937,18.54,20.044,18.221,20.044,18.221z M17.597,22.371c0,0-0.319-0.106-0.213-0.319 c0-0.213,0.106-1.702,0.106-1.702s0.213-0.851,0.745-1.49c0.213,0.106,0.532,0.213,0.958,0.319v0.106l0.106-0.319l2.022,0.532 c0,0-0.452,0.065-0.702,0.093l0.063,0.014c0,0-1.596,0.319-1.809,0.319c0,0.106-0.106,0.106-0.106,0.213h-0.106v0.426 l-0.106,0.106v0.106c0.213,0.106,0.851,0.532,1.064,0.638h0.213l0.106,0.106c0,0-0.426-0.106-0.532,0.106 c-0.106,0.213-0.213,0.958-0.213,0.958s0,0.319,0.638,0.319v0.106l-0.106,0.106h-0.213v0.851l-0.213,0.106v-0.851l0.213-0.106 l-0.213-0.213l-0.106-0.213l-0.958-0.532v0.426h0.106v0.638h-0.106v-0.426l-0.106,0.745H17.49L17.597,22.371L17.597,22.371z M19.193,23.222v0.745h-0.106L19.193,23.222z M18.98,23.115v0.745h-0.106L18.98,23.115z M18.767,23.009v0.745h-0.106 L18.767,23.009z M18.554,23.541v-0.745l0.106,0.106v0.638H18.554z M18.448,22.796c0,0,0,0.638,0,0.638h-0.106L18.448,22.796z M26.108,27.478l0.745,0.745v0.213l-0.958,1.383C25.896,29.818,25.364,28.861,26.108,27.478z M26.534,26.839 c0,0,0.851-1.064,2.022-0.958l-0.958,1.49l-0.213,0.106L26.534,26.839z M26.108,30.35l1.064-1.277h0.213l0.638,1.596 C28.024,30.67,26.853,30.989,26.108,30.35z M28.662,30.457l-0.532-1.702l0.106-0.106l1.702-0.106 C29.939,28.542,29.726,29.712,28.662,30.457z M28.343,27.691l-0.106-0.106l0.851-1.49c0,0,0.958,0.532,0.958,1.702L28.343,27.691z M31.216,28.01c0,0,0.319-1.702-0.851-2.979c-1.277-1.277-2.873-1.49-3.83-1.49c-0.958,0.106-2.341,1.064-2.766,1.702 c-0.426,0-1.49-0.106-1.49-0.106l-0.213,0.426l-0.106,0.106h-0.106l-0.638,0.213c0,0-0.106,0.106-0.532-0.106 c-0.106-0.106-0.213-0.106-0.426-0.213c-0.213,0.106-0.745,0.106-1.17-0.106c-0.532-0.213-0.745-0.638-0.851-0.851h-0.106v-0.851 l1.49,1.17h0.106l0.426-0.213c0,0,0.106-0.106,0.106-0.213s0.106-0.319,0.106-0.319l0.319-0.319 c-0.106-0.213-0.638-1.064-0.745-1.17l0.213-0.851c0,0,0.958,1.17,1.17,1.596l0.636-0.212c0.063-0.409,0.298-0.801,0.535-0.958 c0.319-0.213,0.638,0.213,0.638,0.213s-0.319-0.319-0.638,0.106c-0.426,0.532-0.532,1.383,0,1.596c-0.319,0-0.426,0-0.532-0.532 c-0.025-0.127-0.024-0.261-0.006-0.393c-0.029,0.154-0.154,0.936,0.326,1.032l0.532,0.106h0.213c0,0,0.638-0.319,0.851-0.532 c0.213-0.319,0.213-0.745,0-1.064c0.319-0.106,1.702-0.319,3.192,0c-0.106-0.106-0.213-0.319-0.213-0.319 c-0.106-0.106-0.638-0.213-2.447-0.638c0,0,0-0.106,0.638,0c0.638,0.106,1.809,0.213,2.128,0.426 c0.319,0.213,0.532,0.426,0.532,0.426l0.213,0.426c0.213,0.319,0.319,0.426,0.319,0.426s0.213,0.213,0.532,0.319 c0.319,0,0.851,0.106,0.851,0.106s2.022,1.915,2.873,4.043l1.064,0.745L31.216,28.01z M33.024,25.35c0,0-0.638-1.064-1.277-1.809 c0,0,3.405-0.426,7.448,0.426C36.323,23.86,34.088,24.286,33.024,25.35z M35.791,29.393l1.809-1.596l0.213,0.213l0.745,0.319 l-1.383,1.49L35.791,29.393z M38.983,30.67l-1.064-0.319l1.49-1.702l0.638,0.213C40.047,28.861,39.195,29.818,38.983,30.67z M40.579,28.435l-2.341-0.745l-0.213-0.213l0.91-0.809c-0.05-0.025-0.093-0.054-0.125-0.086c-0.078-0.029-0.146-0.062-0.146-0.062 c0-0.106,0-0.426,0.106-0.532c0.213-0.213,0.958-0.532,1.383-0.745c0.426-0.106,1.17-0.213,1.277-0.319 c0.106-0.106,0.319-0.532,0.319-0.532l0.851,0.106l-0.319,0.638c-2.128,0-3.511,1.064-3.511,1.064v0.319 c0,0.021,0.019,0.042,0.04,0.062c0.06,0.023,0.127,0.044,0.173,0.044l-0.048,0.042c0.078,0.038,0.154,0.064,0.154,0.064 c0.532,0.213,2.341,0.958,2.766,1.17C41.855,27.903,41.111,28.01,40.579,28.435z M42.281,31.308 c0.106,0.213,0.213,0.426,0.106,0.426v0.213l-0.532,1.17C41.855,33.117,41.749,32.372,42.281,31.308z M42.068,33.755l-0.106-0.106 l0.638-1.17h0.106l0.426,1.277C43.132,33.755,42.6,33.968,42.068,33.755z M44.196,32.691c-0.319,0.426-0.638,0.745-0.638,0.745 l-0.319-1.383c0,0,0.106-0.106,0.106-0.106l1.277-0.106C44.622,31.84,44.515,32.266,44.196,32.691z M44.622,31.202h-1.17v-0.106 l0.851-1.17C44.302,29.925,44.834,30.457,44.622,31.202z M44.728,32.904c0.532-0.958,0.745-2.022,0.638-2.766 c-0.106-0.958-0.426-1.17-1.064-1.596c-0.106-0.106-0.213-0.106-0.319-0.213c3.192-1.49,9.15,2.554,9.469,6.597 C51.857,33.33,47.707,34.926,44.728,32.904z"/><linearGradient id="0EJRLqQQWapo5EVgkkU9md" x1="31.869" x2="32.507" y1="1.768" y2="59.597" gradientUnits="userSpaceOnUse" spreadMethod="reflect"><stop offset="0" stop-color="#1a6dff"/><stop offset="1" stop-color="#c822ff"/></linearGradient><path fill="url(#0EJRLqQQWapo5EVgkkU9md)" d="M59.843,14.429l-0.096-1.049c-0.027-0.293-0.182-0.56-0.423-0.729l-0.959-0.671 c-4.089-2.823-11.893-6.188-25.852-6.188c-6.25,0-11.532,0.472-15.737,1.393c-1.351-1.371-3.218-2.221-5.277-2.221 c-4.112,0-7.458,3.389-7.458,7.555c0,1.343,0.352,2.602,0.961,3.696c0.004,1.694,0.076,3.383,0.197,4.545 c0.699,6.711,3.016,13.635,6.705,20.03c7.349,12.415,15.285,15.966,18.768,17.518c0.229,0.077,0.382,0.155,0.536,0.232l0.954,0.477 c0.141,0.07,0.294,0.105,0.447,0.105s0.307-0.035,0.447-0.105l0.956-0.478c0.074-0.037,0.167-0.073,0.26-0.11 c0.145-0.058,0.288-0.117,0.358-0.153c3.365-1.467,11.244-4.902,18.499-17.495C58.351,31.726,60.608,22.86,59.843,14.429z M11.5,6.963c1.626,0,3.084,0.731,4.085,1.883c0.025,0.036,0.056,0.063,0.085,0.095c0.802,0.967,1.288,2.214,1.288,3.576 c0,3.063-2.448,5.554-5.458,5.554s-5.458-2.492-5.458-5.554C6.042,9.455,8.49,6.963,11.5,6.963z M51.397,39.781 c-6.926,12.022-14.382,15.272-17.611,16.682c-0.073,0.037-0.165,0.072-0.256,0.108c-0.148,0.059-0.297,0.12-0.414,0.179 l-0.507,0.253l-0.507-0.253c-0.229-0.114-0.457-0.227-0.707-0.304c-3.215-1.438-10.745-4.807-17.765-16.665 c-3.494-6.057-5.782-12.885-6.441-19.228c-0.049-0.465-0.098-1.15-0.135-1.983c1.243,0.939,2.779,1.503,4.445,1.503 c4.112,0,7.458-3.389,7.458-7.554c0-1.288-0.322-2.502-0.885-3.564c3.919-0.77,8.764-1.162,14.441-1.162 c13.444,0,20.86,3.172,24.71,5.83l0.573,0.402l0.054,0.586C58.579,22.623,56.408,31.091,51.397,39.781z"/><linearGradient id="0EJRLqQQWapo5EVgkkU9me" x1="11.5" x2="11.5" y1="8.957" y2="16.106" gradientUnits="userSpaceOnUse" spreadMethod="reflect"><stop offset="0" stop-color="#6dc7ff"/><stop offset="1" stop-color="#e6abff"/></linearGradient><path fill="url(#0EJRLqQQWapo5EVgkkU9me)" d="M11.5 8.976A3.542 3.542 0 1 0 11.5 16.060000000000002A3.542 3.542 0 1 0 11.5 8.976Z"/></svg>